<?xml version="1.0" encoding="utf-8"?>
<!-- Generator: Adobe Illustrator 21.0.0, SVG Export Plug-In . SVG Version: 6.00 Build 0)  -->
<svg version="1.1" id="图层_1" xmlns="http://www.w3.org/2000/svg" xmlns:xlink="http://www.w3.org/1999/xlink" x="0px" y="0px"
	 viewBox="0 0 128 128" style="enable-background:new 0 0 128 128;" xml:space="preserve">
<g>
	<path d="M45.1,98.3c-2.8,0-5-2.2-5-5V41.5c0-2.8,2.2-5,5-5s5,2.2,5,5v51.8C50.1,96,47.9,98.3,45.1,98.3z"/>
</g>
<g>
	<path d="M64,98.3c-2.8,0-5-2.2-5-5V41.5c0-2.8,2.2-5,5-5c2.8,0,5,2.2,5,5v51.8C69,96,66.8,98.3,64,98.3z"/>
</g>
<g>
	<path d="M82.9,98.3c-2.8,0-5-2.2-5-5V41.5c0-2.8,2.2-5,5-5s5,2.2,5,5v51.8C87.9,96,85.6,98.3,82.9,98.3z"/>
</g>
</svg>
