<?xml version="1.0" encoding="utf-8"?>
<!-- Generator: Adobe Illustrator 21.0.0, SVG Export Plug-In . SVG Version: 6.00 Build 0)  -->
<svg version="1.1" id="图层_1" xmlns="http://www.w3.org/2000/svg" xmlns:xlink="http://www.w3.org/1999/xlink" x="0px" y="0px"
	 viewBox="0 0 128 128" style="enable-background:new 0 0 128 128;" xml:space="preserve">
<path d="M60.6,120.5h10.8c2.7,0,5-1.7,5.8-4.3l0.2-0.5l0.5-0.1c16-4,29.6-15.5,36.4-30.7l0.3-0.6l0.6,0C121.7,84,127,76,127,66.4
	c0-6.4-2.2-12.2-6-15.4l-0.2-0.2l-0.1-0.3C114.6,24.5,91,5.7,64.4,5.7c-26.7,0-49.8,18.1-56.1,43.9L8.2,50l-0.3,0.2
	C3.6,53.3,1,59.5,1,66.4c0,9.9,5.4,17.9,12,17.9s12-8,12-17.9c0-6.5-2.4-12.4-6.1-15.5l-0.5-0.4l0.2-0.6c6-20,24.9-34,45.9-34
	c21,0,39.3,13.5,45.7,33.5l0.2,0.7l-0.6,0.4c-4.1,3-6.7,9.3-6.7,16c0,6.5,2.4,12.5,6.3,15.7l0.6,0.5l-0.3,0.7
	c-6.2,13.6-18.1,23.6-32.7,27.4l-0.6,0.2l-0.4-0.5c-1.1-1.3-2.8-2.1-4.5-2.1H60.6c-3.4,0-6.1,2.7-6.1,6.1
	C54.5,117.8,57.2,120.5,60.6,120.5z"/>
</svg>
