<?xml version="1.0" encoding="utf-8"?>
<!-- Generator: Adobe Illustrator 21.0.0, SVG Export Plug-In . SVG Version: 6.00 Build 0)  -->
<svg version="1.1" id="图层_1" xmlns="http://www.w3.org/2000/svg" xmlns:xlink="http://www.w3.org/1999/xlink" x="0px" y="0px"
	 viewBox="0 0 128 128" style="enable-background:new 0 0 128 128;" xml:space="preserve">
<g>
	<path d="M47.9,67.2v6.1l0.1,0.3c0.5,1.4,1.8,2.4,3.2,2.4h28.9c1.7,0,3.1-1.3,3.3-2.9l0-5.8c0-0.8-0.3-1.5-0.7-2.2
		c-0.5-0.7-1.1-1.3-1.8-1.6c-0.3-0.1-4.9-2.1-10-3.2c0.6-0.5,1.1-1.1,1.6-1.7c1.1-1.5,1.7-3.3,1.7-5.2v-2.7c0-2.8-1.4-5.5-3.6-7.1
		c-1.5-1.1-3.3-1.7-5.2-1.7c-4.9,0-8.9,4-8.9,8.9v2.7c0,2.9,1.4,5.4,3.4,7c-4.9,1.1-9.1,2.9-9.4,3C49,64,47.9,65.6,47.9,67.2z"/>
	<path d="M64.9,109c-20.9,0-38.7-13.6-45-32.5c2.2-1.8,3.6-4.6,3.6-7.7c0-5.5-4.5-10-10-10s-10,4.5-10,10c0,4.3,2.7,7.9,6.5,9.3
		C17.1,101.7,39,119,64.9,119c6.9,0,13.7-1.2,20.2-3.6l-3.5-9.4C76.2,108,70.6,109,64.9,109z"/>
	<path d="M122.3,61.6c0-11.5-3.4-22.6-9.8-32.1l-8.3,5.6c5.3,7.8,8.1,17,8.1,26.5c0,11.2-4,21.9-11,30.3c-0.5-0.1-1-0.1-1.5-0.1
		c-5.5,0-10,4.5-10,10s4.5,10,10,10s10-4.5,10-10c0-1.3-0.3-2.5-0.7-3.7C117.5,87.9,122.3,75,122.3,61.6z"/>
	<path d="M105.3,19.8c0-5.5-4.5-10-10-10c-1.4,0-2.8,0.3-4,0.8c-8.1-4.2-17.1-6.4-26.4-6.4c-25.4,0-48,17-55.1,41.3l9.6,2.8
		C25.2,28.2,44,14.2,64.9,14.2c7.2,0,14.1,1.6,20.4,4.6c0,0.3,0,0.6,0,1c0,5.5,4.5,10,10,10S105.3,25.3,105.3,19.8z"/>
</g>
</svg>
