<?xml version="1.0" standalone="no"?><!DOCTYPE svg PUBLIC "-//W3C//DTD SVG 1.1//EN" "http://www.w3.org/Graphics/SVG/1.1/DTD/svg11.dtd"><svg t="1506761767156" class="icon" style="" viewBox="0 0 1024 1024" version="1.1" xmlns="http://www.w3.org/2000/svg" p-id="21153" xmlns:xlink="http://www.w3.org/1999/xlink" width="128" height="128"><defs><style type="text/css"></style></defs><path d="M729.678 231.39c0-12.645 5.313-25.207 14.435-34.103 9.124-8.939 21.953-14.127 34.887-14.127 12.91 0 25.742 5.188 34.864 14.127 9.142 8.897 14.458 21.459 14.458 34.103 0 12.603-5.314 25.169-14.458 34.101-9.124 8.939-21.953 14.129-34.864 14.129-12.935 0-25.763-5.19-34.887-14.129-9.123-8.933-14.435-21.498-14.435-34.101v0zM598.513 150.99c0-15.154 6.403-30.23 17.361-40.94 10.956-10.708 26.362-16.969 41.847-16.969 15.507 0 30.891 6.26 41.844 16.969 10.978 10.708 17.361 25.785 17.361 40.94 0 15.157-6.386 30.233-17.361 40.942-10.955 10.708-26.337 16.929-41.844 16.929-15.49 0-30.893-6.22-41.847-16.929s-17.361-25.785-17.361-40.942v0zM418.049 125.247c0-17.71 7.435-35.258 20.222-47.779 12.793-12.48 30.767-19.771 48.828-19.771 18.084 0 36.060 7.292 48.847 19.771 12.769 12.522 20.205 30.068 20.205 47.779 0 17.671-7.431 35.258-20.205 47.738-12.787 12.522-30.764 19.808-48.847 19.808-18.061 0-36.039-7.286-48.828-19.808-12.789-12.481-20.222-30.067-20.222-47.738v0zM195.677 134.887c0-22.736 9.555-45.306 26.011-61.408 16.432-16.064 39.54-25.415 62.769-25.415 23.25 0 46.356 9.35 62.791 25.415 16.453 16.105 26.009 38.674 26.009 61.408s-9.555 45.349-26.009 61.408c-16.433 16.064-39.54 25.415-62.791 25.415-23.229 0-46.337-9.35-62.769-25.415-16.454-16.059-26.011-38.673-26.011-61.408v0zM610.297 242.879h-0.146c-1.873 0-3.645-0.244-5.457-0.244-1.876 0-3.665 0.244-5.5 0.244h-207.483c-1.834-0.038-3.645-0.244-5.458-0.244-1.853 0-3.643 0.206-5.477 0.244h-3.893v0.249c-79.039 4.737-141.746 68.826-141.746 147.33 0 52.969 28.641 99.345 71.502 125.415v0.165l2.881 1.689c0 0 85.34 44.359-2.881 254.579h0.062c-7.167 17.3-11.226 36.041-11.226 55.81 0 81.593 67.734 147.821 151.162 147.821 36.574 0 70.099-12.727 96.275-33.895v0.036l0.041 0.208c150.768-121.339 247.539-304.337 250.363-509.366 0.061-1.897 0.306-3.667 0.306-5.52 0.002-100.126-81.676-181.553-183.321-184.521v0z" p-id="21154"></path></svg>