<?xml version="1.0" encoding="utf-8"?>
<!-- Generator: Adobe Illustrator 21.0.0, SVG Export Plug-In . SVG Version: 6.00 Build 0)  -->
<svg version="1.1" id="图层_1" xmlns="http://www.w3.org/2000/svg" xmlns:xlink="http://www.w3.org/1999/xlink" x="0px" y="0px"
	 viewBox="0 0 128 128" style="enable-background:new 0 0 128 128;" xml:space="preserve">
<style type="text/css">
	.st0{fill:#070102;}
</style>
<path class="st0" d="M110.2,26C110.2,26,110.2,26,110.2,26c-7.6,0-13.8-6-13.9-13.4c0-1.9-1.6-3.5-3.6-3.5H35.2
	c-2,0-3.6,1.5-3.6,3.5C31.6,20,25.4,26,17.8,26c-2,0-3.6,1.5-3.6,3.5v27.2c0,0.1,0,0.2,0,0.3c1,12.1,4.2,23.1,9.5,32.7
	c4.2,7.7,9.8,14.5,16.5,20.2c11.5,9.7,22.3,12.9,22.8,13c0.7,0.2,1.3,0.2,2,0c0.5-0.1,11.3-3.3,22.8-13c6.7-5.7,12.3-12.5,16.5-20.2
	c5.2-9.6,8.4-20.6,9.5-32.7c0-0.1,0-0.2,0-0.3V29.4C113.7,27.5,112.2,26,110.2,26z M72.1,97.9L64,92.4l-8.2,5.5l2.9-9.2l-7.9-5.8
	l9.9-0.2l3.3-9.1l3.2,9.1l9.9,0.2l-7.9,5.8L72.1,97.9z M85.1,62.2H42.9c-2,0-3.6-1.5-3.6-3.5c0-1.9,1.6-3.5,3.6-3.5h42.2
	c2,0,3.6,1.5,3.6,3.5C88.6,60.7,87,62.2,85.1,62.2z M85.1,44.7H42.9c-2,0-3.6-1.5-3.6-3.5c0-1.9,1.6-3.5,3.6-3.5h42.2
	c2,0,3.6,1.5,3.6,3.5C88.6,43.2,87,44.7,85.1,44.7z"/>
</svg>
