<?xml version="1.0" encoding="utf-8"?>
<!-- Generator: Adobe Illustrator 21.0.0, SVG Export Plug-In . SVG Version: 6.00 Build 0)  -->
<svg version="1.1" id="图层_1" xmlns="http://www.w3.org/2000/svg" xmlns:xlink="http://www.w3.org/1999/xlink" x="0px" y="0px"
	 viewBox="0 0 128 128" style="enable-background:new 0 0 128 128;" xml:space="preserve">
<path d="M37.9,65.3l9.4-11.6c1.5-2,1.5-5.1,0-7c-1.6-1.9-4.1-2-5.7-0.1L29.3,61.8c-1.6,1.9-1.6,5.1,0,7.1L41.5,84
	c1.6,1.9,4.1,1.9,5.7,0c1.6-2,1.6-5.1,0-7.1C47.2,77,37.9,65.3,37.9,65.3z M71.5,39.3c-1.3-0.4-2.6-0.2-3.8,0.4
	c-1.2,0.6-2,1.7-2.4,3L53.2,85.2c-0.4,1.3-0.2,2.6,0.4,3.8c0.6,1.2,1.7,2,3,2.4c2.7,0.8,5.4-0.8,6.2-3.4l12.1-42.5
	c0.4-1.3,0.2-2.6-0.4-3.8S72.8,39.7,71.5,39.3z M86.6,46.6c-1.6-1.9-4.1-1.9-5.7,0s-1.6,5.1,0,7l9.4,11.7L80.9,77
	c-0.8,0.9-1.2,2.2-1.2,3.5s0.4,2.6,1.2,3.6c1.6,1.9,4.1,1.9,5.7,0l12.2-15.2c1.6-1.9,1.6-5.1,0-7.1C98.8,61.8,86.6,46.6,86.6,46.6z"
	/>
<g>
	<path d="M109.2,124.3h-90c-8.3,0-15-6.7-15-15v-90c0-8.3,6.7-15,15-15h90c8.3,0,15,6.7,15,15v90
		C124.2,117.5,117.4,124.3,109.2,124.3z M19.1,14.3c-2.8,0-5,2.2-5,5v90c0,2.8,2.2,5,5,5h90c2.8,0,5-2.2,5-5v-90c0-2.8-2.2-5-5-5
		H19.1z"/>
</g>
</svg>
