<?xml version="1.0" standalone="no"?><!DOCTYPE svg PUBLIC "-//W3C//DTD SVG 1.1//EN" "http://www.w3.org/Graphics/SVG/1.1/DTD/svg11.dtd"><svg t="1507531028383" class="icon" style="" viewBox="0 0 1024 1024" version="1.1" xmlns="http://www.w3.org/2000/svg" p-id="5612" xmlns:xlink="http://www.w3.org/1999/xlink" width="128" height="128"><defs><style type="text/css"></style></defs><path d="M870.4 0H153.6C70.4 0 0 70.4 0 153.6v716.8C0 953.6 70.4 1024 153.6 1024h716.8c83.2 0 153.6-70.4 153.6-153.6V153.6C1024 70.4 953.6 0 870.4 0zM115.2 835.2H0V768h115.2v67.2z m0-272H0v-67.2h115.2v67.2z m0-275.2H0V220.8h115.2V288zM768 835.2c-83.2 0-256-86.4-339.2-169.6-83.2-83.2-169.6-252.8-169.6-339.2 0 0 64-105.6 108.8-105.6 41.6 0 169.6 128 128 169.6-41.6 41.6-83.2 41.6-83.2 83.2s41.6 83.2 83.2 128c41.6 41.6 83.2 83.2 128 83.2 41.6 0 41.6-41.6 83.2-83.2s169.6 83.2 169.6 128c0 41.6-108.8 105.6-108.8 105.6z" p-id="5613"></path></svg>