<?xml version="1.0" encoding="utf-8"?>
<!-- Generator: Adobe Illustrator 21.0.0, SVG Export Plug-In . SVG Version: 6.00 Build 0)  -->
<svg version="1.1" id="图层_1" xmlns="http://www.w3.org/2000/svg" xmlns:xlink="http://www.w3.org/1999/xlink" x="0px" y="0px"
	 viewBox="0 0 1024 1024" style="enable-background:new 0 0 1024 1024;" xml:space="preserve">
<path d="M604.9,157.2c0-50.7-40.9-92.4-91.6-93.2s-92.4,40.9-93.2,91.6c0,5.7,0.8,10.6,1.6,16.4C294.3,216,189.6,352.6,189.6,514.4
	V642c0,0,0,183.1-45,184.8c-25.3-0.8-46.6,19.6-47.4,45v0.8c0,26.2,20.4,46.6,46.6,46.6h739c25.3,0,46.6-20.4,46.6-46.6
	s-20.4-46.6-46.6-46.6c-46.6,0-46.6-183.1-46.6-183.1V515.3c0-161.9-98.1-298.4-232.2-342.5C604.9,167,604.9,162.1,604.9,157.2z"/>
</svg>
