<?xml version="1.0" encoding="utf-8"?>
<!-- Generator: Adobe Illustrator 21.0.0, SVG Export Plug-In . SVG Version: 6.00 Build 0)  -->
<svg version="1.1" id="图层_1" xmlns="http://www.w3.org/2000/svg" xmlns:xlink="http://www.w3.org/1999/xlink" x="0px" y="0px"
	 viewBox="0 0 128 128" style="enable-background:new 0 0 128 128;" xml:space="preserve">
<g>
	<path d="M57.6,105c0,1.9-0.7,3.5-2.2,4.7s-3.3,1.8-5.6,1.8H19.5c-2.3,0-4.1-0.6-5.5-1.8s-2.1-2.7-2.1-4.7V25.6
		c0-1.9,0.7-3.5,2.1-4.7c1.4-1.1,3.2-1.8,5.5-1.8h30.4c2.3,0,4.1,0.6,5.6,1.8s2.2,2.7,2.2,4.7L57.6,105L57.6,105z M47.9,104.3V26.2
		H21.4v78L47.9,104.3L47.9,104.3z"/>
	<path d="M118.7,111.5h-9.6l-3.8-20.6H83.7L80,111.5h-9.3v-0.2L90,18.8h9.5L118.7,111.5z M104,83.7l-9.5-50.1L85,83.7H104z"/>
</g>
</svg>
