<?xml version="1.0" encoding="utf-8"?>
<!-- Generator: Adobe Illustrator 21.0.0, SVG Export Plug-In . SVG Version: 6.00 Build 0)  -->
<svg version="1.1" id="图层_1" xmlns="http://www.w3.org/2000/svg" xmlns:xlink="http://www.w3.org/1999/xlink" x="0px" y="0px"
	 viewBox="0 0 128 128" style="enable-background:new 0 0 128 128;" xml:space="preserve">
<path d="M90.9,73.6c-0.5-0.2-8.7-3.8-17.7-5.6c1.1-0.9,2-1.9,2.8-3c2-2.7,3-5.9,3-9.2v-2.6c0-5-2.4-9.7-6.4-12.6
	c-2.7-2-5.9-3.1-9.2-3.1c-8.6,0-15.6,7-15.6,15.7v2.6c0,5,2.4,9.5,6.1,12.4c-8.6,1.9-16.1,5.1-16.5,5.3c-2.6,1-4.6,4-4.6,6.8V87
	l0.2,0.4c0.8,2.5,3.1,4.2,5.7,4.2h51c3,0,5.4-2.2,5.8-5.1v-6.3c0-1.4-0.5-2.7-1.2-3.9C93.3,75.2,92.2,74.2,90.9,73.6"/>
<g>
	<path d="M109.2,124.5h-90c-8.3,0-15-6.7-15-15v-90c0-8.3,6.7-15,15-15h90c8.3,0,15,6.7,15,15v90
		C124.2,117.8,117.4,124.5,109.2,124.5z M19.1,14.5c-2.8,0-5,2.2-5,5v90c0,2.8,2.2,5,5,5h90c2.8,0,5-2.2,5-5v-90c0-2.8-2.2-5-5-5
		H19.1z"/>
</g>
</svg>
