<?xml version="1.0" standalone="no"?><!DOCTYPE svg PUBLIC "-//W3C//DTD SVG 1.1//EN" "http://www.w3.org/Graphics/SVG/1.1/DTD/svg11.dtd"><svg t="1506758058411" class="icon" style="" viewBox="0 0 1024 1024" version="1.1" xmlns="http://www.w3.org/2000/svg" p-id="3503" xmlns:xlink="http://www.w3.org/1999/xlink" width="128" height="128"><defs><style type="text/css"></style></defs><path d="M815.399543 611.245352l123.313513 66.228377c16.819061 8.555863 22.893406 29.749558 14.33652 46.341445-3.363607 6.334265-8.78406 10.744715-14.33652 13.879102L526.710538 958.88191c-10.710946 5.584182-22.434965 5.125741-32.363082 0L81.75756 737.694275c-16.458857-8.555863-22.338774-29.782304-13.880125-46.275953 3.723811-6.399757 8.590656-11.266601 13.880125-13.944594l123.31249-66.228377L81.75756 545.244148c-16.458857-8.55484-22.338774-29.782304-13.880125-46.306652 3.723811-6.108115 8.590656-11.004635 13.880125-13.944594l123.31249-65.770959L81.75756 352.764346c-16.458857-8.555863-22.338774-29.489638-13.880125-46.308699 3.723811-6.073322 8.590656-11.004635 13.880125-14.172791L494.346433 71.586408c10.352789-5.846148 22.566972-5.357008 32.363082 0L938.713057 292.282856c16.819061 9.045003 22.893406 29.751604 14.33652 46.568618-3.363607 6.075369-8.78406 11.202133-14.33652 13.912871l-123.313513 66.457598 123.313513 65.770959c16.819061 8.81783 22.893406 29.55513 14.33652 46.373167-3.363607 6.303566-8.78406 11.168364-14.33652 13.879102L815.399543 611.245352 815.399543 611.245352zM850.276888 707.485253 850.276888 707.485253l-107.277282-57.573253L526.710538 766.399037c-3.950985 1.76418-7.544837 2.677992-11.266601 3.691065l-0.915859 0.456395-2.709715 0-0.686638 0-1.469468 0-0.554632 0-3.168156 0-0.653893-0.456395c-3.950985-1.013073-7.314593-1.927909-10.940167-3.691065L277.502733 649.913023l-106.951871 57.573253 340.027254 182.194552L850.276888 707.485253 850.276888 707.485253zM510.578116 697.231725 510.578116 697.231725c112.830765-60.153008 226.672556-121.516588 339.698772-182.226275l-107.277282-57.247842L526.710538 573.950957c-3.950985 1.76418-7.544837 3.200902-11.266601 3.657296l-0.915859 0.457418-2.709715 0-0.686638 0-1.469468 0-0.554632 0-3.168156 0-0.653893-0.457418c-3.950985-0.456395-7.314593-1.89414-10.940167-3.657296L277.502733 457.756585l-106.951871 57.247842C283.806299 575.715137 397.093459 636.58753 510.578116 697.231725L510.578116 697.231725zM510.578116 504.750899 510.578116 504.750899c112.830765-60.383252 226.672556-121.517611 339.698772-181.966355L510.578116 140.29528 170.550863 322.784544C283.806299 383.233288 397.093459 444.367647 510.578116 504.750899L510.578116 504.750899z" p-id="3504"></path></svg>