<?xml version="1.0" encoding="utf-8"?>
<!-- Generator: Adobe Illustrator 21.0.0, SVG Export Plug-In . SVG Version: 6.00 Build 0)  -->
<svg version="1.1" id="图层_1" xmlns="http://www.w3.org/2000/svg" xmlns:xlink="http://www.w3.org/1999/xlink" x="0px" y="0px"
	 viewBox="0 0 128 128" style="enable-background:new 0 0 128 128;" xml:space="preserve">
<g>
	<polygon points="96,32 96,8 88,8 88,32 88,40 96,40 120,40 120,32 	"/>
	<polygon points="32.3,32 8.3,32 8.3,40 32.3,40 40.3,40 40.3,32 40.3,8 32.3,8 	"/>
	<polygon points="8.3,87.9 8.3,95.9 32.3,95.9 32.3,119.9 40.3,119.9 40.3,95.9 40.3,87.9 32.3,87.9 	"/>
	<polygon points="88,87.9 88,95.9 88,119.9 96,119.9 96,95.9 120,95.9 120,87.9 96,87.9 	"/>
</g>
</svg>
