<?xml version="1.0" encoding="utf-8"?>
<!-- Generator: Adobe Illustrator 21.0.0, SVG Export Plug-In . SVG Version: 6.00 Build 0)  -->
<svg version="1.1" id="图层_1" xmlns="http://www.w3.org/2000/svg" xmlns:xlink="http://www.w3.org/1999/xlink" x="0px" y="0px"
	 viewBox="0 0 128 128" style="enable-background:new 0 0 128 128;" xml:space="preserve">
<style type="text/css">
	.st0{fill:#1A1A1A;}
</style>
<path class="st0" d="M92.1,25.5l18.4,18.7l-8.8,8.9c-0.9-0.5-1.9-0.7-3-0.7c-3.8,0-7,3.1-7,7v43.2H36.5V59.3c0-3.8-3.1-7-7-7
	c-1.1,0-2.1,0.2-3,0.7l-8.8-8.9l18.4-18.7h5.6c5,5.6,16.1,8.2,22.4,8.2s17.4-2.5,22.4-8.2L92.1,25.5 M92.4,19.2h-6.2
	c-1.6,0-3.2,0.7-4.3,2c-3.2,3.8-12.2,6.2-17.9,6.2S49.4,25,46.2,21.2c-1.1-1.3-2.6-2-4.3-2h-6.2c-1.5,0-2.9,0.6-4,1.7L11.4,41.7
	c-1.3,1.3-1.3,3.5,0,4.8l12.5,12.7c0.7,0.7,1.5,1,2.4,1s1.7-0.3,2.4-1l0.4-0.4c0.1-0.2,0.3-0.2,0.5-0.2c0.4,0,0.7,0.3,0.7,0.7v44.3
	c0,2.9,2.3,5.2,5.1,5.2h57.5c2.8,0,5.1-2.3,5.1-5.2V59.3c0-0.4,0.3-0.7,0.7-0.7c0.2,0,0.3,0.1,0.5,0.2l0.4,0.4c0.7,0.7,1.5,1,2.4,1
	s1.7-0.3,2.4-1l12.5-12.7c1.3-1.3,1.3-3.5,0-4.8L96.4,20.9C95.3,19.8,93.9,19.2,92.4,19.2z"/>
</svg>
