<?xml version="1.0" encoding="utf-8"?>
<!-- Generator: Adobe Illustrator 21.0.0, SVG Export Plug-In . SVG Version: 6.00 Build 0)  -->
<svg version="1.1" id="图层_1" xmlns="http://www.w3.org/2000/svg" xmlns:xlink="http://www.w3.org/1999/xlink" x="0px" y="0px"
	 viewBox="0 0 128 128" style="enable-background:new 0 0 128 128;" xml:space="preserve">
<path d="M116.8,114.3L88,85.4c6.2-7.8,9.9-17.6,9.9-28.3c0-25.2-20.5-45.6-45.6-45.6S6.6,32,6.6,57.2s20.5,45.6,45.6,45.6
	c10.9,0,20.9-3.8,28.7-10.2l28.8,28.8c1,1,2.3,1.5,3.5,1.5s2.6-0.5,3.5-1.5C118.8,119.4,118.8,116.3,116.8,114.3z M16.6,57.2
	c0-19.6,16-35.6,35.6-35.6c19.6,0,35.6,16,35.6,35.6c0,19.6-16,35.6-35.6,35.6C32.6,92.8,16.6,76.8,16.6,57.2z"/>
</svg>
