<?xml version="1.0" encoding="utf-8"?>
<!-- Generator: Adobe Illustrator 21.0.0, SVG Export Plug-In . SVG Version: 6.00 Build 0)  -->
<svg version="1.1" id="图层_1" xmlns="http://www.w3.org/2000/svg" xmlns:xlink="http://www.w3.org/1999/xlink" x="0px" y="0px"
	 viewBox="0 0 128 128" style="enable-background:new 0 0 128 128;" xml:space="preserve">
<style type="text/css">
	.st0{fill:#060001;}
</style>
<g>
	<g>
		<path class="st0" d="M118.3,58.5c2.2-1.2,3.2-2.8,3.7-4c-5.2-0.4-9.5-4.6-9.7-4.8c-0.3-0.3-0.4-0.6-0.3-1
			c0.7-4.7-2.5-10.1-2.5-10.1c-0.2-0.3-0.2-0.6-0.1-1c0.1-0.3,0.3-0.6,0.6-0.7c0.6-0.2,1.2-0.7,1.8-1.2c-2.7-0.2-4.3-0.8-4.4-0.8
			c-0.3-0.1-0.5-0.3-0.7-0.6c-4.2-8.8-12.5-12-12.6-12c-0.4-0.2-0.7-0.5-0.7-0.9c-0.1-0.4,0.1-0.9,0.5-1.1c0.3-0.2,0.6-0.4,0.9-0.5
			c-13.6-8-29.1-3.8-29.3-3.7c-0.2,0.1-0.4,0.1-0.7,0c-0.1,0-9.3-2.8-18.9-0.1c-5.1,1.4-9.1,3.8-11.6,5.6c1.4,0,2.7,0.1,2.9,0.1
			c0.6,0,1.1,0.5,1.1,1.1c0,0.6-0.4,1.1-1,1.2c-0.1,0-9.5,1.7-15.7,11.5c-2.8,4.5-3.5,13.4-3.5,13.5c0,0.3-0.1,0.6-0.4,0.8
			c-0.2,0.2-4.6,4.4-9.7,4.8c0.5,1.1,1.5,2.8,3.7,4c0.5,0.3,0.7,0.9,0.6,1.4c0,0.1-1.8,5.8,0.7,11.1c1.4,2.9,2.6,6.2,1.4,8.4
			c-0.4,0.8-1.1,1.4-2.1,1.8c0.7,1.7,2.1,4.8,4.8,7.6c0.3,0.3,0.4,0.7,0.3,1.1c-0.1,0.4-0.4,0.7-0.8,0.8c0,0-0.2,0.1-0.4,0.1
			c2,2.1,6.3,5.9,13.5,8.5c-2.7-4.6-4.1-9.7-4.2-15c0-1.6,0-3.2,0-4.6c0.7,1,1.4,1.9,2.3,2.8c0,0.6,0,1.2,0,1.8
			c0.1,17.5,17.2,31.7,38,31.7c13.3,0,24.9-5.6,31.8-14.3c0.1-0.1,0.1-0.2,0.2-0.2c3.8-4.9,6.1-10.8,6.2-17.2c0-1.6,0-2.9,0-4.2
			c0.8-1.2,1.5-2.4,2.1-3.7c0.2,2.5,0.3,4.8,0.2,8c-0.1,5.4-1.7,10.6-4.5,15.2c5.9-3,9.9-6.7,11.9-8.7c-0.2,0-0.3-0.1-0.3-0.1
			c-0.4-0.1-0.7-0.4-0.8-0.8c-0.1-0.4,0-0.8,0.3-1.1c2.7-2.8,4.2-6,4.8-7.6c-0.9-0.4-1.6-1-2.1-1.8c-1.2-2.3,0-5.5,1.4-8.4
			c2.5-5.4,0.7-11.1,0.7-11.2C117.6,59.3,117.8,58.8,118.3,58.5z M40.8,47.8c0.1-0.5,0.5-0.8,1-0.9C59.2,44.2,63.8,32.2,64,31.7
			c0.2-0.5,0.6-0.8,1.1-0.8c0.5,0,0.9,0.3,1.1,0.8c0.2,0.7,6.1,17.3,27,14.2c0.3,0,0.6,0,0.9,0.3c0.3,0.2,0.4,0.5,0.4,0.8
			c0,0.2,0.3,3.9,2.9,6.2c-0.8,0.3-1.6,0.5-2.5,0.8c-1.5-1.8-2.3-3.9-2.6-5.6c-1.4,0.2-2.8,0.2-4,0.2c-14.3,0-20.9-9.4-23.3-13.8
			c-2.3,4-8.5,11.9-22.3,14.3c-0.4,1.3-1.6,3.9-4.1,6.1c-1-0.3-1.9-0.5-2.9-0.8C39.8,52,40.7,48,40.8,47.8z M67.7,92.6
			c-0.2,0.1-0.5,0.2-0.9,0.2c-0.5,0-1.2-0.2-1.8-0.8c-2.2-2-1.5-8.9-1.4-10.3c0.1-0.5,0.5-0.8,1-0.8c0.5,0.1,0.8,0.5,0.8,1
			c-0.3,3-0.3,7.7,0.8,8.8c0.5,0.4,0.7,0.3,0.8,0.3c0.7-0.3,1.2-1.4,1.2-1.8c0-0.5,0.4-0.8,0.9-0.9c0.5,0,0.8,0.4,0.8,0.9
			C69.9,90.1,69.2,92,67.7,92.6z M94.1,86.1C78.5,91.9,72,80.3,72,80.3s-1.3-0.9-7-0.9s-7,0.9-7,0.9s-6.5,11.6-22.1,5.8
			c-18.2-6.8-12.5-34.9-12.5-34.9s17.7,9.1,41.6,9.1c23.9,0,41.6-9.1,41.6-9.1S112.3,79.3,94.1,86.1z M38.2,68.9h-2
			c-0.5,0-0.9,0.4-0.9,0.9v4c0,0.5,0.4,0.9,0.9,0.9h2c1.6,0,2.9-1.3,2.9-2.9C41.1,70.2,39.8,68.9,38.2,68.9z M43.5,74.2
			c-1.6,0-2.9,1.3-2.9,2.9v2c0,0.5,0.4,0.9,0.9,0.9h4c0.5,0,0.9-0.4,0.9-0.9v-2C46.4,75.5,45.1,74.2,43.5,74.2z M43.5,69.3
			c1.6,0,2.9-1.3,2.9-2.9v-2c0-0.5-0.4-0.9-0.9-0.9h-4c-0.5,0-0.9,0.4-0.9,0.9v2C40.7,68,42,69.3,43.5,69.3z M86.5,74.4
			c-1.5,0-2.8,1.2-2.8,2.8c0,1.5,1.2,2.8,2.8,2.8c1.5,0,2.8-1.2,2.8-2.8C89.2,75.6,88,74.4,86.5,74.4z M91.9,69
			c-1.5,0-2.8,1.2-2.8,2.8c0,1.5,1.2,2.8,2.8,2.8c1.5,0,2.8-1.2,2.8-2.8C94.6,70.2,93.4,69,91.9,69z M50.8,68.9h-2
			c-1.6,0-2.9,1.3-2.9,2.9c0,1.6,1.3,2.9,2.9,2.9h2c0.5,0,0.9-0.4,0.9-0.9v-4C51.7,69.3,51.3,68.9,50.8,68.9z M81.1,69
			c-1.5,0-2.8,1.2-2.8,2.8c0,1.5,1.2,2.8,2.8,2.8c1.5,0,2.8-1.2,2.8-2.8C83.9,70.2,82.6,69,81.1,69z M86.5,69.1
			c1.5,0,2.8-1.2,2.8-2.8c0-1.5-1.2-2.8-2.8-2.8c-1.5,0-2.8,1.2-2.8,2.8C83.7,67.9,84.9,69.1,86.5,69.1z"/>
	</g>
</g>
</svg>
