<?xml version="1.0" encoding="utf-8"?>
<!-- Generator: Adobe Illustrator 21.0.0, SVG Export Plug-In . SVG Version: 6.00 Build 0)  -->
<svg version="1.1" id="图层_1" xmlns="http://www.w3.org/2000/svg" xmlns:xlink="http://www.w3.org/1999/xlink" x="0px" y="0px"
	 viewBox="0 0 128 128" style="enable-background:new 0 0 128 128;" xml:space="preserve">
<path d="M75.4,23.5c0-6.2-5-11.3-11.2-11.4s-11.3,5-11.4,11.2c0,0.7,0.1,1.3,0.2,2c-15.6,5.4-28.4,22.1-28.4,41.9v15.6
	c0,0,0,22.4-5.5,22.6c-3.1-0.1-5.7,2.4-5.8,5.5c0,0,0,0.1,0,0.1c0,3.2,2.5,5.7,5.7,5.7h90.4c3.1,0,5.7-2.5,5.7-5.7s-2.5-5.7-5.7-5.7
	c-5.7,0-5.7-22.4-5.7-22.4V67.3c0-19.8-12-36.5-28.4-41.9C75.4,24.7,75.4,24.1,75.4,23.5z"/>
</svg>
