<?xml version="1.0" encoding="utf-8"?>
<!-- Generator: Adobe Illustrator 21.0.0, SVG Export Plug-In . SVG Version: 6.00 Build 0)  -->
<svg version="1.1" id="图层_1" xmlns="http://www.w3.org/2000/svg" xmlns:xlink="http://www.w3.org/1999/xlink" x="0px" y="0px"
	 viewBox="0 0 128 128" style="enable-background:new 0 0 128 128;" xml:space="preserve">
<g>
	<path d="M37.4,112.5c0,2.4-0.5,4.4-1.6,5.9c-1.1,1.5-2.5,2.3-4.3,2.3H10.4c-1.8,0-3.2-0.8-4.3-2.3c-1.1-1.5-1.7-3.5-1.7-5.9V83.2
		h7.5v28.4H30V84.1L6.8,45.5c-1.6-2.7-2.4-5.6-2.4-8.8V13.3c0-2.4,0.6-4.4,1.7-5.9c1.1-1.5,2.6-2.3,4.3-2.3h21.1
		c1.8,0,3.2,0.8,4.3,2.3c1.1,1.5,1.6,3.5,1.6,5.9v26.9H30v-26H11.8v24.4l23.3,38.6c1.5,2.6,2.3,5.4,2.3,8.6V112.5z"/>
	<path d="M86.3,120.7h-7.8L62.9,58.8l1-2.1h13.3V14.2H58.1v106.5h-7.5V5.1h28.1c1.8,0,3.2,0.8,4.3,2.3c1.1,1.5,1.7,3.5,1.7,5.9v43.9
		c0,5.6-2.7,8.3-8.2,8.3c-0.5,0-1.3,0-2.4-0.1c-1-0.1-1.8-0.1-2.3-0.1C76.7,83.7,81.5,102.2,86.3,120.7z"/>
	<path d="M125.1,120.7H97.5V5.1h27.2v9.1H105v43.1h18v9.2h-18v45.1h20.1V120.7z"/>
</g>
</svg>
