<?xml version="1.0" encoding="utf-8"?>
<!-- Generator: Adobe Illustrator 21.0.0, SVG Export Plug-In . SVG Version: 6.00 Build 0)  -->
<svg version="1.1" id="图层_1" xmlns="http://www.w3.org/2000/svg" xmlns:xlink="http://www.w3.org/1999/xlink" x="0px" y="0px"
	 viewBox="0 0 128 128" style="enable-background:new 0 0 128 128;" xml:space="preserve">
<style type="text/css">
	.st0{fill:none;}
</style>
<path d="M112,56H96c-2.2,0-4,1.8-4,4s1.8,4,4,4h16c2.2,0,4-1.8,4-4S114.2,56,112,56 M112,40H96c-2.2,0-4,1.8-4,4s1.8,4,4,4h16
	c2.2,0,4-1.8,4-4S114.2,40,112,40 M96,32h16c2.2,0,4-1.8,4-4s-1.8-4-4-4H96c-2.2,0-4,1.8-4,4S93.8,32,96,32"/>
<path d="M97.7,80c-0.6-0.3-12.2-5.3-24.8-7.8c1.5-1.2,2.8-2.6,3.9-4.2c2.7-3.7,4.2-8.3,4.2-12.9V42c0-7-3.4-13.6-9-17.7
	c-3.8-2.8-8.3-4.3-13-4.3c-12.1,0-22,9.9-22,22v13.1c0,7.1,3.4,13.4,8.5,17.4c-12.1,2.6-22.7,7.2-23.2,7.5c-3.7,1.5-6.4,5.6-6.4,9.6
	V106l0.2,0.6c1.2,3.5,4.4,5.8,8,5.8h71.6c4.2,0,7.6-3.1,8.1-7.1l0.1-15.8c0-1.9-0.6-3.8-1.7-5.5C101.2,82.2,99.5,80.7,97.7,80"/>
<line class="st0" x1="92" y1="28" x2="116" y2="28"/>
</svg>
